<svg width="46" height="46" viewBox="0 0 46 46" fill="none" xmlns="http://www.w3.org/2000/svg">
<g clip-path="url(#clip0_76_373)">
<path d="M0 23C0 10.2975 10.2975 0 23 0C35.7025 0 46 10.2975 46 23C46 35.7025 35.7025 46 23 46C10.2975 46 0 35.7025 0 23Z" fill="#628E90"/>
<path fill-rule="evenodd" clip-rule="evenodd" d="M22.6842 19.2097C22.6842 18.3232 22.452 17.5633 21.9889 16.9271C21.2172 15.8912 19.909 15.3604 18.0597 15.3333L10.7334 15.3333L10.7334 30.2896H17.5649C18.3352 30.2896 19.0478 30.2241 19.7069 30.0889C20.3662 29.9523 20.9359 29.7033 21.4192 29.3376C21.849 29.0188 22.2068 28.626 22.4923 28.1607C22.9438 27.4577 23.1689 26.6622 23.1689 25.7756C23.1689 24.9161 22.9712 24.1847 22.5789 23.5842C22.1822 22.9822 21.5995 22.5425 20.8263 22.2636C21.3355 22.0075 21.7207 21.7228 21.9832 21.4126C22.452 20.8577 22.6842 20.1219 22.6842 19.2097ZM32.9069 17.892H26.4101V16.0306H32.9069V17.892ZM27.1674 23.6653C27.2741 22.9452 27.5352 22.3746 27.9492 21.9533C28.3632 21.5321 28.9488 21.3215 29.6989 21.3215C30.3913 21.3215 30.9698 21.5193 31.4399 21.9163C31.9044 22.3162 32.167 22.8968 32.2203 23.6653L27.1674 23.6653ZM32.3343 19.4545C33.1176 19.7989 33.7623 20.3453 34.2701 21.091C34.7331 21.7484 35.0302 22.5112 35.1658 23.3778C35.2452 23.8845 35.2769 24.6187 35.264 25.5736L27.0952 25.5736C27.1443 26.6821 27.5309 27.4606 28.2695 27.906C28.7166 28.1834 29.2546 28.3229 29.8865 28.3229C30.5514 28.3229 31.0952 28.1535 31.5121 27.8163C31.7414 27.6328 31.9434 27.3794 32.1165 27.055H35.1096C35.0302 27.7095 34.6667 28.377 34.0234 29.0544C33.0194 30.1288 31.6131 30.6667 29.8057 30.6667C28.3127 30.6667 26.9957 30.2142 25.8576 29.3062C24.7138 28.3997 24.1455 26.9227 24.1455 24.8791C24.1455 22.9623 24.6604 21.4923 25.6889 20.4691C26.7202 19.4488 28.0545 18.935 29.6975 18.935C30.674 18.935 31.5524 19.1087 32.3343 19.4545ZM13.7554 27.6939V23.7052H17.4885C18.1376 23.7108 18.6439 23.7962 19.0045 23.9584C19.6493 24.2502 19.9695 24.7838 19.9695 25.5636C19.9695 26.4829 19.6378 27.1034 18.9728 27.4307C18.6078 27.6057 18.0943 27.6939 17.4366 27.6939H13.7554ZM13.7554 17.9304V21.2304H17.4423C18.0987 21.2304 18.6338 21.1066 19.0464 20.859C19.456 20.6115 19.6623 20.1731 19.6623 19.5469C19.6623 18.8482 19.3911 18.3886 18.8487 18.1638C18.3785 18.0086 17.7813 17.9304 17.0557 17.9304H13.7554Z" fill="#F5EFE5"/>
</g>
<defs>
<clipPath id="clip0_76_373">
<rect width="46" height="46" fill="white"/>
</clipPath>
</defs>
</svg>
