<svg width="46" height="46" viewBox="0 0 46 46" fill="none" xmlns="http://www.w3.org/2000/svg">
<g clip-path="url(#clip0_86_1695)">
<path d="M0 23C0 10.2975 10.2975 0 23 0C35.7025 0 46 10.2975 46 23C46 35.7025 35.7025 46 23 46C10.2975 46 0 35.7025 0 23Z" fill="#F5EFE5"/>
<path fill-rule="evenodd" clip-rule="evenodd" d="M22.6841 19.2099C22.6841 18.3233 22.4519 17.5634 21.9889 16.9273C21.2171 15.8913 19.9089 15.3605 18.0596 15.3335H10.7333V30.2897H17.5648C18.3351 30.2897 19.0477 30.2243 19.7069 30.0891C20.3661 29.9525 20.9359 29.7034 21.4191 29.3377C21.849 29.019 22.2067 28.6262 22.4923 28.1609C22.9437 27.4578 23.1689 26.6623 23.1689 25.7758C23.1689 24.9163 22.9712 24.1849 22.5788 23.5844C22.1822 22.9823 21.5994 22.5427 20.8262 22.2638C21.3355 22.0076 21.7206 21.723 21.9831 21.4128C22.4519 20.8578 22.6841 20.1221 22.6841 19.2099ZM32.9069 17.8922H26.41V16.0308H32.9069V17.8922ZM27.1673 23.6654C27.2741 22.9453 27.5351 22.3748 27.9491 21.9535C28.3631 21.5323 28.9488 21.3216 29.6988 21.3216C30.3912 21.3216 30.9697 21.5194 31.4399 21.9165C31.9044 22.3164 32.1669 22.897 32.2202 23.6654H27.1673ZM32.3343 19.4546C33.1175 19.799 33.7623 20.3455 34.27 21.0912C34.7331 21.7486 35.0302 22.5113 35.1658 23.3779C35.2451 23.8846 35.2768 24.6189 35.2639 25.5738H27.0952C27.1442 26.6823 27.5308 27.4607 28.2694 27.9062C28.7166 28.1836 29.2546 28.323 29.8864 28.323C30.5514 28.323 31.0951 28.1537 31.512 27.8165C31.7413 27.6329 31.9434 27.3796 32.1164 27.0552H35.1095C35.0302 27.7097 34.6667 28.3772 34.0233 29.0545C33.0194 30.1289 31.613 30.6668 29.8056 30.6668C28.3126 30.6668 26.9957 30.2143 25.8576 29.3064C24.7137 28.3999 24.1454 26.9228 24.1454 24.8793C24.1454 22.9624 24.6603 21.4924 25.6888 20.4693C26.7202 19.449 28.0544 18.9352 29.6974 18.9352C30.674 18.9352 31.5524 19.1089 32.3343 19.4546ZM13.7553 27.6941V23.7053H17.4884C18.1375 23.711 18.6438 23.7963 19.0044 23.9586C19.6492 24.2503 19.9695 24.7839 19.9695 25.5638C19.9695 26.483 19.6377 27.1036 18.9727 27.4308C18.6078 27.6058 18.0942 27.6941 17.4365 27.6941H13.7553ZM13.7553 17.9306V21.2306H17.4422C18.0986 21.2306 18.6337 21.1068 19.0463 20.8591C19.4559 20.6116 19.6622 20.1733 19.6622 19.5471C19.6622 18.8484 19.391 18.3888 18.8486 18.1639C18.3784 18.0088 17.7812 17.9306 17.0557 17.9306H13.7553Z" fill="#625954"/>
</g>
<defs>
<clipPath id="clip0_86_1695">
<rect width="46" height="46" fill="white"/>
</clipPath>
</defs>
</svg>
