<svg width="48" height="48" viewBox="0 0 48 48" fill="none" xmlns="http://www.w3.org/2000/svg">
<g clip-path="url(#clip0_76_357)">
<path d="M0 24C0 10.7452 10.7452 0 24 0C37.2548 0 48 10.7452 48 24C48 37.2548 37.2548 48 24 48C10.7452 48 0 37.2548 0 24Z" fill="#628E90"/>
<path d="M34.4695 33.23H13.5007C12.6876 33.23 12.0029 32.5667 12.0029 31.7322L12.0029 16.5833C12.0029 15.7703 12.6662 15.0856 13.5007 15.0856L34.4695 15.0856C35.2826 15.0856 35.9673 15.7489 35.9673 16.5833V31.7322C35.9673 32.5667 35.304 33.23 34.4695 33.23Z" fill="#628E90"/>
<path d="M13.5007 33.23C12.6662 33.23 12.0029 32.5667 12.0029 31.7322L12.0029 16.5619C12.0029 15.7275 12.6662 15.5777 13.5007 15.5777C14.3352 15.5777 14.9985 15.7489 14.9985 16.5619L14.9985 33.23H13.5007Z" fill="#F5EFE5"/>
<path d="M13.5007 15.7917C14.5705 15.7917 14.7845 16.1126 14.7845 16.5619L14.7845 33.016H13.5007C12.7946 33.016 12.2169 32.4383 12.2169 31.7322L12.2169 16.5619C12.2169 16.0912 12.4309 15.7917 13.5007 15.7917ZM13.5007 15.5777C12.6662 15.5777 12.0029 15.7489 12.0029 16.5619L12.0029 31.7322C12.0029 32.5667 12.6662 33.23 13.5007 33.23H14.9985L14.9985 16.5619C14.9985 15.7275 14.3352 15.5777 13.5007 15.5777Z" fill="#F5EFE5"/>
<path d="M34.4695 33.23H32.9717V16.5192C32.9717 15.6847 33.635 15.5777 34.4695 15.5777C35.3039 15.5777 35.9672 15.6847 35.9672 16.5192V31.7536C35.9672 32.5667 35.3039 33.23 34.4695 33.23Z" fill="#F5EFE5"/>
<path d="M34.4695 15.7917C35.4323 15.7917 35.7533 15.9842 35.7533 16.5192V31.7536C35.7533 32.4597 35.1756 33.0374 34.4695 33.0374H33.1857V16.5192C33.1857 15.9628 33.5066 15.7917 34.4695 15.7917ZM34.4695 15.5777C33.635 15.5777 32.9717 15.6847 32.9717 16.5192V33.2514H34.4695C35.3039 33.2514 35.9672 32.5881 35.9672 31.7536V16.5192C35.9672 15.6847 35.3039 15.5777 34.4695 15.5777Z" fill="#F5EFE5"/>
<path d="M23.9636 26.0193L12.6447 17.803C11.9814 17.3109 11.7889 16.3694 12.281 15.7061C12.7731 15.0428 13.736 14.893 14.4207 15.3851L23.985 22.3391L33.6135 15.2996C34.2768 14.8074 35.2183 14.9572 35.7104 15.6419C36.2025 16.3052 36.0527 17.2467 35.368 17.7388L23.9636 26.0193Z" fill="#F5EFE5"/>
<path d="M34.4697 15.214C34.8762 15.214 35.2614 15.4065 35.5181 15.7489C35.9247 16.3266 35.7963 17.1183 35.24 17.5462L23.9639 25.7625L12.7734 17.6318C12.1957 17.2039 12.0459 16.3908 12.4525 15.8345C12.6878 15.5135 13.0944 15.2996 13.5223 15.2996C13.8005 15.2996 14.0786 15.3851 14.2926 15.5563L23.8355 22.4889L23.9639 22.5744L24.0923 22.4889L33.6994 15.4493C33.9348 15.2996 34.1915 15.214 34.4697 15.214ZM34.4697 15C34.1701 15 33.8492 15.0856 33.5924 15.2782L23.9639 22.3177L14.3996 15.3637C14.1428 15.1712 13.8219 15.0856 13.5009 15.0856C13.0302 15.0856 12.5594 15.2996 12.2599 15.7061C11.7892 16.3694 11.9817 17.3108 12.645 17.803L23.9639 26.0407L35.347 17.7388C36.0103 17.2467 36.16 16.3266 35.6893 15.6419C35.3897 15.214 34.9404 15 34.4697 15Z" fill="#F5EFE5"/>
</g>
<defs>
<clipPath id="clip0_76_357">
<rect width="48" height="48" fill="white"/>
</clipPath>
</defs>
</svg>
