<svg width="48" height="48" viewBox="0 0 48 48" fill="none" xmlns="http://www.w3.org/2000/svg">
<g clip-path="url(#clip0_86_1679)">
<path d="M0 24C0 10.7452 10.7452 0 24 0C37.2548 0 48 10.7452 48 24C48 37.2548 37.2548 48 24 48C10.7452 48 0 37.2548 0 24Z" fill="#F5EFE5"/>
<path d="M34.4697 33.2298H13.5009C12.6878 33.2298 12.0031 32.5665 12.0031 31.732V16.5831C12.0031 15.7701 12.6664 15.0854 13.5009 15.0854H34.4697C35.2828 15.0854 35.9675 15.7487 35.9675 16.5831V31.732C35.9675 32.5665 35.3042 33.2298 34.4697 33.2298Z" fill="#F5EFE5"/>
<path d="M13.5009 33.2299C12.6664 33.2299 12.0031 32.5666 12.0031 31.7321V16.5618C12.0031 15.7274 12.6664 15.5776 13.5009 15.5776C14.3354 15.5776 14.9987 15.7488 14.9987 16.5618V33.2299H13.5009Z" fill="#625954"/>
<path d="M13.5009 15.7916C14.5707 15.7916 14.7847 16.1125 14.7847 16.5618V33.0159H13.5009C12.7948 33.0159 12.2171 32.4382 12.2171 31.7321V16.5618C12.2171 16.0911 12.4311 15.7916 13.5009 15.7916ZM13.5009 15.5776C12.6664 15.5776 12.0031 15.7488 12.0031 16.5618V31.7321C12.0031 32.5666 12.6664 33.2299 13.5009 33.2299H14.9987V16.5618C14.9987 15.7274 14.3354 15.5776 13.5009 15.5776Z" fill="#625954"/>
<path d="M34.4697 33.2299H32.9719V16.5191C32.9719 15.6846 33.6352 15.5776 34.4697 15.5776C35.3041 15.5776 35.9674 15.6846 35.9674 16.5191V31.7535C35.9674 32.5666 35.3041 33.2299 34.4697 33.2299Z" fill="#625954"/>
<path d="M34.4697 15.7916C35.4325 15.7916 35.7535 15.9841 35.7535 16.5191V31.7535C35.7535 32.4596 35.1758 33.0373 34.4697 33.0373H33.1859V16.5191C33.1859 15.9627 33.5068 15.7916 34.4697 15.7916ZM34.4697 15.5776C33.6352 15.5776 32.9719 15.6846 32.9719 16.5191V33.2513H34.4697C35.3041 33.2513 35.9674 32.588 35.9674 31.7535V16.5191C35.9674 15.6846 35.3041 15.5776 34.4697 15.5776Z" fill="#625954"/>
<path d="M23.9639 26.0193L12.645 17.803C11.9817 17.3109 11.7892 16.3694 12.2813 15.7061C12.7734 15.0428 13.7363 14.893 14.421 15.3851L23.9853 22.3391L33.6138 15.2996C34.2771 14.8074 35.2186 14.9572 35.7107 15.6419C36.2028 16.3052 36.053 17.2467 35.3683 17.7388L23.9639 26.0193Z" fill="#625954"/>
<path d="M34.4697 15.214C34.8762 15.214 35.2614 15.4065 35.5181 15.7489C35.9247 16.3266 35.7963 17.1183 35.24 17.5462L23.9639 25.7625L12.7734 17.6318C12.1957 17.2039 12.0459 16.3908 12.4525 15.8345C12.6878 15.5135 13.0944 15.2996 13.5223 15.2996C13.8005 15.2996 14.0786 15.3851 14.2926 15.5563L23.8355 22.4889L23.9639 22.5744L24.0923 22.4889L33.6994 15.4493C33.9348 15.2996 34.1915 15.214 34.4697 15.214ZM34.4697 15C34.1701 15 33.8492 15.0856 33.5924 15.2782L23.9639 22.3177L14.3996 15.3637C14.1428 15.1712 13.8219 15.0856 13.5009 15.0856C13.0302 15.0856 12.5594 15.2996 12.2599 15.7061C11.7892 16.3694 11.9817 17.3108 12.645 17.803L23.9639 26.0407L35.347 17.7388C36.0103 17.2467 36.16 16.3266 35.6893 15.6419C35.3897 15.214 34.9404 15 34.4697 15Z" fill="#625954"/>
</g>
<defs>
<clipPath id="clip0_86_1679">
<rect width="48" height="48" fill="white"/>
</clipPath>
</defs>
</svg>
