<svg width="46" height="46" viewBox="0 0 46 46" fill="none" xmlns="http://www.w3.org/2000/svg">
<g clip-path="url(#clip0_76_366)">
<mask id="mask0_76_366" style="mask-type:alpha" maskUnits="userSpaceOnUse" x="0" y="0" width="46" height="46">
<path fill-rule="evenodd" clip-rule="evenodd" d="M0 23C0 10.2975 10.2975 0 23 0C35.7025 0 46 10.2975 46 23C46 35.7025 35.7025 46 23 46C10.2975 46 0 35.7025 0 23Z" fill="white"/>
</mask>
<g mask="url(#mask0_76_366)">
<rect width="46" height="46" fill="#628E90"/>
<path fill-rule="evenodd" clip-rule="evenodd" d="M23.0012 10.7333C19.6698 10.7333 19.2516 10.7479 17.9432 10.8074C16.6373 10.8672 15.746 11.0739 14.966 11.3773C14.1592 11.6906 13.4748 12.1097 12.793 12.7918C12.1106 13.4736 11.6914 14.158 11.3771 14.9646C11.073 15.7448 10.866 16.6364 10.8073 17.9418C10.7487 19.2502 10.7334 19.6686 10.7334 23.0001C10.7334 26.3316 10.7483 26.7483 10.8075 28.0568C10.8676 29.3628 11.0743 30.2541 11.3774 31.0341C11.691 31.8408 12.11 32.5253 12.7922 33.2071C13.4738 33.8895 14.1581 34.3096 14.9644 34.6229C15.7449 34.9262 16.6365 35.133 17.9422 35.1928C19.2507 35.2523 19.6685 35.2669 22.9997 35.2669C26.3314 35.2669 26.7482 35.2523 28.0567 35.1928C29.3625 35.133 30.2549 34.9262 31.0355 34.6229C31.842 34.3096 32.5253 33.8895 33.2069 33.2071C33.8892 32.5253 34.3084 31.8408 34.6227 31.0343C34.9243 30.2541 35.1313 29.3625 35.1927 28.057C35.2514 26.7486 35.2667 26.3316 35.2667 23.0001C35.2667 19.6686 35.2514 19.2505 35.1927 17.9421C35.1313 16.6362 34.9243 15.7448 34.6227 14.9649C34.3084 14.158 33.8892 13.4736 33.2069 12.7918C32.5246 12.1095 31.8422 11.6903 31.0347 11.3773C30.2526 11.0739 29.3608 10.8672 28.0549 10.8074C26.7464 10.7479 26.3299 10.7333 22.9974 10.7333H23.0012ZM22.5921 12.9437H22.5924L23.0012 12.9438C26.2764 12.9438 26.6646 12.9556 27.958 13.0144C29.154 13.0691 29.8032 13.2689 30.2356 13.4368C30.808 13.6591 31.2161 13.925 31.6452 14.3543C32.0745 14.7836 32.3404 15.1926 32.5632 15.765C32.7311 16.1969 32.9312 16.846 32.9856 18.042C33.0444 19.3351 33.0572 19.7236 33.0572 22.9973C33.0572 26.271 33.0444 26.6594 32.9856 27.9526C32.9309 29.1486 32.7311 29.7977 32.5632 30.2296C32.3408 30.802 32.0745 31.2097 31.6452 31.6387C31.2159 32.068 30.8083 32.3339 30.2356 32.5562C29.8037 32.7249 29.154 32.9242 27.958 32.9788C26.6649 33.0377 26.2764 33.0504 23.0012 33.0504C19.7257 33.0504 19.3375 33.0377 18.0444 32.9788C16.8484 32.9236 16.1993 32.7238 15.7667 32.5559C15.1942 32.3336 14.7852 32.0678 14.3559 31.6384C13.9266 31.2091 13.6608 30.8012 13.438 30.2285C13.2701 29.7967 13.07 29.1475 13.0156 27.9515C12.9567 26.6584 12.945 26.2699 12.945 22.9943C12.945 19.7185 12.9567 19.3321 13.0156 18.0389C13.0702 16.8429 13.2701 16.1938 13.438 15.7614C13.6603 15.1889 13.9266 14.7801 14.3559 14.3508C14.7852 13.9214 15.1942 13.6556 15.7667 13.4328C16.1991 13.2641 16.8484 13.0648 18.0444 13.0098C19.176 12.9587 19.6146 12.9433 21.9008 12.9408V12.9438C22.1144 12.9435 22.3442 12.9436 22.5921 12.9437ZM28.0771 16.4522C28.0771 15.6392 28.7365 14.9807 29.5491 14.9807V14.9802C30.3618 14.9802 31.0211 15.6395 31.0211 16.4522C31.0211 17.2649 30.3618 17.9242 29.5491 17.9242C28.7365 17.9242 28.0771 17.2649 28.0771 16.4522ZM23.0009 16.7006C19.5222 16.7007 16.7017 19.5213 16.7017 23.0001C16.7017 26.479 19.5223 29.2984 23.0012 29.2984C26.4802 29.2984 29.2997 26.479 29.2997 23.0001C29.2997 19.5212 26.4799 16.7006 23.0009 16.7006ZM27.0901 23.0001C27.0901 20.7417 25.2593 18.9112 23.0012 18.9112C20.7428 18.9112 18.9123 20.7417 18.9123 23.0001C18.9123 25.2582 20.7428 27.089 23.0012 27.089C25.2593 27.089 27.0901 25.2582 27.0901 23.0001Z" fill="#F5EFE5"/>
</g>
</g>
<defs>
<clipPath id="clip0_76_366">
<rect width="46" height="46" fill="white"/>
</clipPath>
</defs>
</svg>
