<svg width="46" height="46" viewBox="0 0 46 46" fill="none" xmlns="http://www.w3.org/2000/svg">
<g clip-path="url(#clip0_86_1688)">
<mask id="mask0_86_1688" style="mask-type:alpha" maskUnits="userSpaceOnUse" x="0" y="0" width="46" height="46">
<path fill-rule="evenodd" clip-rule="evenodd" d="M0 23C0 10.2975 10.2975 0 23 0C35.7025 0 46 10.2975 46 23C46 35.7025 35.7025 46 23 46C10.2975 46 0 35.7025 0 23Z" fill="white"/>
</mask>
<g mask="url(#mask0_86_1688)">
<rect width="46" height="46" fill="#F5EFE5"/>
<path fill-rule="evenodd" clip-rule="evenodd" d="M23.0012 10.7334C19.6697 10.7334 19.2516 10.748 17.9432 10.8075C16.6372 10.8673 15.7459 11.074 14.9659 11.3774C14.1591 11.6907 13.4747 12.1098 12.7929 12.7919C12.1106 13.4737 11.6914 14.1581 11.3771 14.9646C11.073 15.7448 10.866 16.6364 10.8072 17.9419C10.7487 19.2503 10.7333 19.6687 10.7333 23.0002C10.7333 26.3316 10.7482 26.7484 10.8074 28.0569C10.8675 29.3628 11.0742 30.2542 11.3773 31.0342C11.6909 31.8409 12.11 32.5253 12.7921 33.2072C13.4737 33.8895 14.158 34.3096 14.9644 34.6229C15.7448 34.9262 16.6365 35.133 17.9421 35.1928C19.2506 35.2524 19.6685 35.2669 22.9996 35.2669C26.3314 35.2669 26.7481 35.2524 28.0567 35.1928C29.3625 35.133 30.2549 34.9262 31.0354 34.6229C31.842 34.3096 32.5253 33.8895 33.2068 33.2072C33.8892 32.5253 34.3083 31.8409 34.6227 31.0343C34.9243 30.2542 35.1313 29.3625 35.1926 28.0571C35.2513 26.7487 35.2667 26.3316 35.2667 23.0002C35.2667 19.6687 35.2513 19.2506 35.1926 17.9422C35.1313 16.6363 34.9243 15.7448 34.6227 14.9649C34.3083 14.1581 33.8892 13.4737 33.2068 12.7919C32.5245 12.1096 31.8422 11.6904 31.0347 11.3774C30.2526 11.074 29.3608 10.8673 28.0548 10.8075C26.7463 10.748 26.3298 10.7334 22.9973 10.7334H23.0012ZM22.592 12.9438H22.5923L23.0012 12.9439C26.2764 12.9439 26.6646 12.9557 27.9579 13.0144C29.1539 13.0691 29.8031 13.269 30.2355 13.4369C30.8079 13.6592 31.2161 13.925 31.6451 14.3544C32.0745 14.7837 32.3403 15.1926 32.5631 15.765C32.731 16.197 32.9311 16.846 32.9855 18.042C33.0443 19.3352 33.0571 19.7236 33.0571 22.9974C33.0571 26.271 33.0443 26.6595 32.9855 27.9526C32.9308 29.1486 32.731 29.7977 32.5631 30.2296C32.3408 30.802 32.0745 31.2097 31.6451 31.6388C31.2158 32.0681 30.8082 32.3339 30.2355 32.5563C29.8036 32.7249 29.1539 32.9243 27.9579 32.9789C26.6649 33.0377 26.2764 33.0505 23.0012 33.0505C19.7257 33.0505 19.3374 33.0377 18.0444 32.9789C16.8484 32.9237 16.1992 32.7239 15.7666 32.556C15.1941 32.3337 14.7852 32.0678 14.3558 31.6385C13.9265 31.2091 13.6608 30.8013 13.4379 30.2286C13.27 29.7968 13.0699 29.1476 13.0155 27.9516C12.9567 26.6585 12.945 26.27 12.945 22.9943C12.945 19.7185 12.9567 19.3321 13.0155 18.039C13.0701 16.843 13.27 16.1939 13.4379 15.7615C13.6603 15.189 13.9265 14.7802 14.3558 14.3508C14.7852 13.9215 15.1941 13.6556 15.7666 13.4328C16.199 13.2642 16.8484 13.0648 18.0444 13.0098C19.176 12.9587 19.6145 12.9434 21.9007 12.9408V12.9439C22.1143 12.9436 22.3441 12.9437 22.592 12.9438ZM28.0771 16.4523C28.0771 15.6393 28.7364 14.9807 29.5491 14.9807V14.9803C30.3617 14.9803 31.0211 15.6396 31.0211 16.4523C31.0211 17.2649 30.3617 17.9243 29.5491 17.9243C28.7364 17.9243 28.0771 17.2649 28.0771 16.4523ZM23.0009 16.7007C19.5221 16.7007 16.7016 19.5213 16.7016 23.0002C16.7016 26.4791 19.5222 29.2984 23.0012 29.2984C26.4801 29.2984 29.2996 26.4791 29.2996 23.0002C29.2996 19.5212 26.4798 16.7007 23.0009 16.7007ZM27.0901 23.0002C27.0901 20.7418 25.2593 18.9112 23.0012 18.9112C20.7427 18.9112 18.9122 20.7418 18.9122 23.0002C18.9122 25.2583 20.7427 27.0891 23.0012 27.0891C25.2593 27.0891 27.0901 25.2583 27.0901 23.0002Z" fill="#625954"/>
</g>
</g>
<defs>
<clipPath id="clip0_86_1688">
<rect width="46" height="46" fill="white"/>
</clipPath>
</defs>
</svg>
