<svg width="48" height="48" viewBox="0 0 48 48" fill="none" xmlns="http://www.w3.org/2000/svg">
<path d="M32.2802 5.91999L14.2202 11.92C2.08023 15.98 2.08023 22.6 14.2202 26.64L19.5802 28.42L21.3602 33.78C25.4002 45.92 32.0402 45.92 36.0802 33.78L42.1002 15.74C44.7802 7.63999 40.3802 3.21999 32.2802 5.91999ZM32.9202 16.68L25.3202 24.32C25.0202 24.62 24.6402 24.76 24.2602 24.76C23.8802 24.76 23.5002 24.62 23.2002 24.32C22.6202 23.74 22.6202 22.78 23.2002 22.2L30.8002 14.56C31.3802 13.98 32.3402 13.98 32.9202 14.56C33.5002 15.14 33.5002 16.1 32.9202 16.68Z" fill="#628E90"/>
</svg>
